<svg width="65" height="65" viewBox="0 0 65 65" fill="none" xmlns="http://www.w3.org/2000/svg">
<mask id="mask0_17_4146" style="mask-type:alpha" maskUnits="userSpaceOnUse" x="2" y="11" width="63" height="52">
<path d="M19.063 19.0625H60.5768C62.5314 19.0625 63.8322 21.0827 63.0234 22.8621L53.4613 43.8988C52.153 46.777 49.2831 48.625 46.1214 48.625H19.063V19.0625Z" fill="url(#paint0_linear_17_4146)"/>
<path fill-rule="evenodd" clip-rule="evenodd" d="M13.688 11H2.93799C2.93799 15.4528 6.54769 19.0625 11.0005 19.0625V40.5625C11.0005 45.0153 14.6102 48.625 19.063 48.625V19.0625V16.375C19.063 13.4065 16.6565 11 13.688 11ZM21.7505 56.6875C21.7505 53.719 19.344 51.3125 16.3755 51.3125H11.0005V56.6875C11.0005 59.656 13.407 62.0625 16.3755 62.0625C19.344 62.0625 21.7505 59.656 21.7505 56.6875ZM40.563 51.3125H35.188V56.6875C35.188 59.656 37.5945 62.0625 40.563 62.0625C43.5315 62.0625 45.938 59.656 45.938 56.6875C45.938 53.719 43.5315 51.3125 40.563 51.3125Z" fill="black"/>
</mask>
<g mask="url(#mask0_17_4146)">
<path d="M0.25 0.25H64.75V64.75H0.25V0.25Z" fill="#333333"/>
</g>
<defs>
<linearGradient id="paint0_linear_17_4146" x1="40.563" y1="21.75" x2="40.563" y2="48.625" gradientUnits="userSpaceOnUse">
<stop stop-opacity="0.85"/>
<stop offset="1" stop-opacity="0.5"/>
</linearGradient>
</defs>
</svg>
