<svg width="65" height="65" viewBox="0 0 65 65" fill="none" xmlns="http://www.w3.org/2000/svg">
<mask id="mask0_17_4157" style="mask-type:alpha" maskUnits="userSpaceOnUse" x="5" y="4" width="54" height="57">
<path fill-rule="evenodd" clip-rule="evenodd" d="M52.6558 4.28125H45.937C48.9055 4.28125 51.312 6.68772 51.312 9.65625V55.3438C51.312 58.3123 48.9055 60.7188 45.937 60.7188H52.6558C55.6243 60.7188 58.0308 58.3123 58.0308 55.3438V9.65625C58.0308 6.68772 55.6243 4.28125 52.6558 4.28125ZM25.7808 53.7313C25.7808 52.3954 26.8637 51.3125 28.1995 51.3125H39.487C40.8229 51.3125 41.9058 52.3954 41.9058 53.7313C41.9058 55.0671 40.8228 56.15 39.487 56.15H28.1995C26.8637 56.15 25.7808 55.0671 25.7808 53.7313Z" fill="black"/>
<path fill-rule="evenodd" clip-rule="evenodd" d="M23.0933 4.28125C20.1247 4.28125 17.7183 6.68772 17.7183 9.65625V60.7188H45.937C48.9055 60.7188 51.312 58.3123 51.312 55.3438V9.65625C51.312 6.68772 48.9055 4.28125 45.937 4.28125H23.0933ZM28.1995 51.3125C26.8637 51.3125 25.7808 52.3954 25.7808 53.7313C25.7808 55.0671 26.8637 56.15 28.1995 56.15H39.487C40.8228 56.15 41.9058 55.0671 41.9058 53.7313C41.9058 52.3954 40.8229 51.3125 39.487 51.3125H28.1995Z" fill="url(#paint0_linear_17_4157)"/>
<path opacity="0.8" d="M27.1245 37.875H40.562C40.562 40.8435 38.1555 43.25 35.187 43.25H27.1245V37.875Z" fill="url(#paint1_linear_17_4157)"/>
<path opacity="0.8" d="M16.375 21.75H40.5625C40.5625 24.7185 38.156 27.125 35.1875 27.125H16.375V21.75Z" fill="url(#paint2_linear_17_4157)"/>
<path fill-rule="evenodd" clip-rule="evenodd" d="M21.7499 37.875C21.7499 34.9065 24.1564 32.5 27.1249 32.5L31.1563 32.5L31.1563 37.875C31.1563 40.8435 28.7498 43.25 25.7813 43.25L8.3125 43.25C8.31247 40.2815 10.7189 37.875 13.6874 37.875L21.7499 37.875Z" fill="black"/>
<path fill-rule="evenodd" clip-rule="evenodd" d="M13.687 21.75C13.687 18.7815 16.0934 16.375 19.062 16.375L23.0933 16.375L23.0933 21.75C23.0933 24.7185 20.6868 27.125 17.7183 27.125L5.62451 27.125C5.62448 24.1565 8.03093 21.75 10.9995 21.75L13.687 21.75Z" fill="black"/>
</mask>
<g mask="url(#mask0_17_4157)">
<rect x="0.25" y="0.25" width="64.5" height="64.5" fill="#333333"/>
</g>
<defs>
<linearGradient id="paint0_linear_17_4157" x1="11.2579" y1="16.375" x2="46.2551" y2="34.8544" gradientUnits="userSpaceOnUse">
<stop stop-opacity="0.4"/>
<stop offset="1" stop-opacity="0.15"/>
</linearGradient>
<linearGradient id="paint1_linear_17_4157" x1="40.562" y1="37.875" x2="24.437" y2="37.875" gradientUnits="userSpaceOnUse">
<stop/>
<stop offset="0.990695" stop-opacity="0.3"/>
</linearGradient>
<linearGradient id="paint2_linear_17_4157" x1="40.5625" y1="21.75" x2="24.4375" y2="21.75" gradientUnits="userSpaceOnUse">
<stop/>
<stop offset="0.990695" stop-opacity="0.3"/>
</linearGradient>
</defs>
</svg>
